<svg class="icon" viewBox="0 0 1024 1024" xmlns="http://www.w3.org/2000/svg" width="200" height="200"><defs><style/></defs><path d="M395.18 176.207h197.723c18.89 0 34.176-15.286 34.176-34.176s-15.286-34.175-34.176-34.175H395.181c-18.89 0-34.176 15.285-34.176 34.175s15.348 34.176 34.176 34.176z"/><path d="M883.15 107.856h-42.69c-18.89 0-34.175 15.285-34.175 34.175s15.286 34.176 34.176 34.176h42.688a24.42 24.42 0 0 1 24.42 24.42v637.72c0 44.554-36.226 80.78-80.779 80.78H165.706c-44.553 0-80.78-36.226-80.78-80.78v-637.72a24.42 24.42 0 0 1 24.42-24.42h39.21c18.89 0 34.176-15.286 34.176-34.176s-15.286-34.175-34.176-34.175h-39.21c-51.139 0-92.771 41.632-92.771 92.771v637.72c0 82.21 66.922 149.132 149.13 149.132H826.79c82.209 0 149.131-66.923 149.131-149.131v-637.72c0-51.14-41.632-92.772-92.772-92.772z"/><path d="M270.719 284.078c18.89 0 34.176-15.285 34.176-34.175V50.378c0-18.89-15.286-34.176-34.176-34.176s-34.176 15.286-34.176 34.176v199.525c0 18.89 15.348 34.175 34.176 34.175zm444.347 0c18.89 0 34.176-15.285 34.176-34.175V50.378c0-18.89-15.286-34.176-34.176-34.176s-34.175 15.286-34.175 34.176v199.525c0 18.89 15.286 34.175 34.175 34.175zM293.772 581.594l76.678 84.01a70.9 70.9 0 0 0 52.506 23.054c16.964 0 33.99-6.027 47.536-18.207l216.675-195.174a34.132 34.132 0 0 0 2.485-48.282 34.132 34.132 0 0 0-48.281-2.485L424.696 619.685c-1.118.994-2.796.932-3.852-.187l-76.678-84.01a34.182 34.182 0 0 0-48.281-2.175c-13.857 12.739-14.79 34.363-2.113 48.281z"/></svg>