<svg class="icon" viewBox="0 0 1024 1024" xmlns="http://www.w3.org/2000/svg" width="200" height="200"><defs><style/></defs><path d="M876.089 2.276c39.813 0 72.164 31.952 72.809 71.614l.009 1.203V585.78c0 15.082-12.226 27.307-27.307 27.307-14.891 0-26.997-11.917-27.301-26.735l-.006-.572V75.093c0-9.885-7.877-17.927-17.694-18.197l-.51-.007H147.91c-9.885 0-17.928 7.877-18.197 17.695l-.007.51v873.813c0 9.885 7.877 17.927 17.694 18.197l.51.007h364.633c15.08 0 27.307 12.226 27.307 27.307 0 14.891-11.918 26.997-26.737 27.301l-.57.005H147.911c-39.813 0-72.164-31.952-72.809-71.614l-.009-1.203V75.093c0-39.813 31.953-72.164 71.615-72.808l1.203-.01H876.09zM703.147 584.818c105.567 0 191.146 85.579 191.146 191.146 0 42.936-14.155 82.565-38.056 114.475l84.214 84.214c10.664 10.663 10.664 27.951 0 38.615-10.664 10.665-27.953 10.665-38.617 0l-84.212-84.213c-31.91 23.9-71.54 38.056-114.475 38.056C597.579 967.111 512 881.532 512 775.964s85.58-191.146 191.147-191.146zm0 54.613c-75.405 0-136.534 61.129-136.534 136.533s61.129 136.534 136.534 136.534c29.953 0 58.305-9.607 81.736-27.156l15.805-11.836 11.836-15.805c17.55-23.43 27.156-51.783 27.156-81.737 0-75.404-61.129-136.533-136.533-136.533zM630.329 384.57c15.08 0 27.307 12.226 27.307 27.307 0 15.08-12.227 27.306-27.307 27.306H320.853c-15.08 0-27.306-12.226-27.306-27.306 0-15.081 12.226-27.307 27.306-27.307H630.33zm72.818-163.84c15.08 0 27.306 12.226 27.306 27.307 0 15.08-12.226 27.306-27.306 27.306H320.853c-15.08 0-27.306-12.226-27.306-27.306 0-15.081 12.226-27.307 27.306-27.307h382.294z"/></svg>