<svg class="icon" viewBox="0 0 1024 1024" xmlns="http://www.w3.org/2000/svg" width="200" height="200"><defs><style/></defs><path d="M887.546 440.218V72.055a70.394 70.394 0 0 0-70.314-70.314H193.24a70.394 70.394 0 0 0-70.314 70.314v368.163a259.516 259.516 0 0 0-74.764 182.306v366.853a23.438 23.438 0 1 0 46.877 0V794.226h158.845V922.18a23.438 23.438 0 1 0 46.876 0V794.226h409.805V922.18a23.438 23.438 0 0 0 46.876 0V794.226h157.992v195.151a23.438 23.438 0 1 0 46.877 0V622.524a259.516 259.516 0 0 0-74.764-182.306zM193.24 48.618h623.992a23.461 23.461 0 0 1 23.438 23.437v330.48a258.458 258.458 0 0 0-98.281-37.001c-3.493-100.034-85.743-180.395-186.596-180.395h-101.08c-100.864 0-183.114 80.361-186.596 180.395a258.628 258.628 0 0 0-98.304 37V72.055a23.461 23.461 0 0 1 23.427-23.438zm502.09 313.434H315.164c5.166-72.544 65.707-130.036 139.549-130.036h101.069c73.841 0 134.383 57.492 139.548 130.036zM95.04 747.338V622.524c0-117.772 95.823-213.595 213.617-213.595h393.182c117.772 0 213.595 95.823 213.595 213.595v124.814z"/></svg>