<svg class="icon" viewBox="0 0 1024 1024" xmlns="http://www.w3.org/2000/svg" width="200" height="200"><defs><style/></defs><path d="M808.587 584.6V439.4l80.61-80.609a421.76 421.76 0 0 0-64.299-111.12l-109.955 29.492-125.756-72.6-29.491-110.1a426.348 426.348 0 0 0-128.378 0l-29.491 110.1-125.757 72.6-109.954-29.492c-26.943 33.497-48.716 70.998-64.371 111.12l80.609 80.61v145.198l-80.61 80.61c15.656 40.122 37.356 77.55 64.372 111.12l109.954-29.492 125.757 72.6 29.49 110.1a426.348 426.348 0 0 0 128.379 0l29.49-110.1 125.757-72.6 109.955 29.492c26.943-33.497 48.715-70.998 64.298-111.12l-80.61-80.61zm45.22 289.96l-126.558-33.933-63.06 36.409-33.933 126.702c-42.962 11.651-88.11 17.986-134.713 17.986-46.676 0-91.896-6.262-134.786-17.986l-34.005-126.702-63.06-36.41-126.485 33.934A509.215 509.215 0 0 1 2.276 641.106l92.697-92.697V475.59L2.276 382.894a509.215 509.215 0 0 1 134.93-233.527l126.485 33.934 63.06-36.41L360.758 20.19A510.307 510.307 0 0 1 495.47 2.276c46.677 0 91.896 6.262 134.786 17.986l33.933 126.702 63.06 36.41 126.558-33.934c64.08 63.352 111.41 143.524 134.931 233.454l-92.77 92.697v72.818l92.77 92.697A509.215 509.215 0 0 1 853.807 874.56zM495.543 643.072a131.072 131.072 0 1 0 0-262.144 131.072 131.072 0 0 0 0 262.144zm0 87.381a218.453 218.453 0 1 1 0-436.906 218.453 218.453 0 0 1 0 436.906z"/></svg>